<?xml version="1.0" encoding="UTF-8"?>
<svg width="96px" height="96px" viewBox="0 0 96 96" version="1.1" xmlns="http://www.w3.org/2000/svg" xmlns:xlink="http://www.w3.org/1999/xlink">
    <!-- Generator: Sketch 50.2 (55047) - http://www.bohemiancoding.com/sketch -->
    <title>2x变焦</title>
    <desc>Created with Sketch.</desc>
    <defs>
        <rect id="path-1" x="0" y="0" width="96" height="96"></rect>
        <polygon id="path-3" points="0.000147692308 0.835495397 83.9071015 0.835495397 83.9071015 66.4615395 0.000147692308 66.4615395"></polygon>
        <polygon id="path-5" points="0.174276923 0.241772311 71.6780308 0.241772311 71.6780308 50.4926038 0.174276923 50.4926038"></polygon>
    </defs>
    <g id="2x变焦" stroke="none" stroke-width="1" fill="none" fill-rule="evenodd">
        <g id="Group">
            <mask id="mask-2" fill="white">
                <use xlink:href="#path-1"></use>
            </mask>
            <g id="Mask"></g>
            <g mask="url(#mask-2)">
                <g transform="translate(0.000000, 9.000000)">
                    <path d="M8.96950154,25.7885542 C8.53528615,25.7885542 8.18377846,25.4370465 8.18377846,25.0028311 L8.18377846,17.783631 L15.4029785,17.783631 C15.8371938,17.783631 16.1901785,18.1351387 16.1901785,18.5693541 C16.1901785,19.0035695 15.8371938,19.3565541 15.4029785,19.3565541 L9.75522462,19.3565541 L9.75522462,25.0028311 C9.75522462,25.4370465 9.40371692,25.7885542 8.96950154,25.7885542" id="Fill-1" fill="#707473"></path>
                    <path d="M15.7064862,26.0928004 C15.5041477,26.0928004 15.3047631,26.0160004 15.1496862,25.8638773 L8.77971692,19.4924311 C8.47251692,19.1852311 8.47251692,18.686031 8.77971692,18.378831 C9.08839385,18.073108 9.58316308,18.073108 9.89184,18.378831 L16.2632862,24.7502773 C16.5704862,25.0574773 16.5704862,25.5566773 16.2632862,25.8638773 C16.1082092,26.0160004 15.9088246,26.0928004 15.7064862,26.0928004" id="Fill-3" fill="#707473"></path>
                    <path d="M15.4037169,69.7067826 L8.18304,69.7067826 L8.18304,62.4875825 C8.18304,62.0533671 8.53602462,61.7018594 8.97024,61.7018594 C9.40445538,61.7018594 9.75596308,62.0533671 9.75596308,62.4875825 L9.75596308,68.1353364 L15.4037169,68.1353364 C15.8379323,68.1353364 16.18944,68.4868441 16.18944,68.9210595 C16.18944,69.3552749 15.8379323,69.7067826 15.4037169,69.7067826" id="Fill-5" fill="#707473"></path>
                    <path d="M9.33592615,69.3418349 C9.13358769,69.3418349 8.93420308,69.2650349 8.77912615,69.1129118 C8.47192615,68.8057118 8.47192615,68.3065118 8.77912615,67.9993118 L15.1505723,61.6263886 C15.4592492,61.3206655 15.9540185,61.3206655 16.2626954,61.6263886 C16.5698954,61.9335886 16.5698954,62.4327886 16.2626954,62.7399886 L9.89272615,69.1129118 C9.73764923,69.2650349 9.53826462,69.3418349 9.33592615,69.3418349" id="Fill-7" fill="#707473"></path>
                    <path d="M75.7239138,69.7067826 L68.5032369,69.7067826 C68.0690215,69.7067826 67.7175138,69.3552749 67.7175138,68.9210595 C67.7175138,68.4868441 68.0690215,68.1353364 68.5032369,68.1353364 L74.1524677,68.1353364 L74.1524677,62.4875825 C74.1524677,62.0533671 74.5039754,61.7018594 74.9381908,61.7018594 C75.3724062,61.7018594 75.7239138,62.0533671 75.7239138,62.4875825 L75.7239138,69.7067826 Z" id="Fill-9" fill="#707473"></path>
                    <path d="M74.5714708,69.3418349 C74.3691323,69.3418349 74.1697477,69.2650349 74.0146708,69.1129118 L67.6432246,62.7399886 C67.3360246,62.4327886 67.3360246,61.9335886 67.6432246,61.6263886 C67.9519015,61.3206655 68.4481477,61.3206655 68.7553477,61.6263886 L75.1282708,67.9993118 C75.4354708,68.3065118 75.4354708,68.8057118 75.1282708,69.1129118 C74.9731938,69.2650349 74.7738092,69.3418349 74.5714708,69.3418349" id="Fill-11" fill="#707473"></path>
                    <path d="M74.9377477,25.7885542 C74.5035323,25.7885542 74.1520246,25.4370465 74.1520246,25.0028311 L74.1520246,19.3565541 L68.5042708,19.3565541 C68.0700554,19.3565541 67.7170708,19.0035695 67.7170708,18.5693541 C67.7170708,18.1351387 68.0700554,17.783631 68.5042708,17.783631 L75.7234708,17.783631 L75.7234708,25.0028311 C75.7234708,25.4370465 75.3719631,25.7885542 74.9377477,25.7885542" id="Fill-13" fill="#707473"></path>
                    <path d="M68.1992862,26.0928004 C67.9969477,26.0928004 67.7975631,26.0160004 67.6424862,25.8638773 C67.3352862,25.5566773 67.3352862,25.0574773 67.6424862,24.7502773 L74.0154092,18.378831 C74.3226092,18.073108 74.8188554,18.073108 75.1275323,18.378831 C75.4347323,18.686031 75.4347323,19.1852311 75.1275323,19.4924311 L68.7560862,25.8638773 C68.6010092,26.0160004 68.4016246,26.0928004 68.1992862,26.0928004" id="Fill-15" fill="#707473"></path>
                    <path d="M24.5392246,50.4807884 L32.4127015,42.0874345 C34.1599015,40.2087883 35.0312862,38.6033729 35.0312862,37.2711882 C35.0312862,35.5609113 34.1864862,34.7072497 32.4983631,34.7072497 C30.9475938,34.7072497 29.8635323,35.7632498 29.2447015,37.8767267 L25.2008862,37.0732806 C25.6232862,35.1872498 26.4208246,33.7206651 27.5949785,32.6794343 C28.8725169,31.5540189 30.5163323,30.9898343 32.5249477,30.9898343 C34.57344,30.9898343 36.1965785,31.5746959 37.3987938,32.7503266 C38.5729477,33.896419 39.1578092,35.3925421 39.1578092,37.2431267 C39.1578092,39.2901421 38.0944246,41.462696 35.9617477,43.7637422 L33.6237785,46.2700807 C33.3992862,46.513773 33.0935631,46.7766653 32.7080862,47.0602345 C32.3802092,47.3039269 32.2147938,47.416173 32.2147938,47.396973 L32.7509169,47.3408499 C33.1644554,47.3039269 33.5203938,47.2847269 33.8202092,47.2847269 L39.0455631,47.2847269 L39.0455631,50.8337731 L24.5392246,50.8337731 L24.5392246,50.4807884 Z" id="Fill-17" fill="#707473"></path>
                    <polygon id="Fill-19" fill="#707473" points="56.9984492 51.1442223 43.2025108 37.3482836 45.5700185 34.9807759 59.3674338 48.7752376"></polygon>
                    <polygon id="Fill-21" fill="#707473" points="45.5695754 51.1442223 43.2020677 48.7752376 56.9980062 34.9807759 59.3669908 37.3482836"></polygon>
                    <g id="Group-25" stroke-width="1" fill="none" transform="translate(0.000000, 10.097280)">
                        <mask id="mask-4" fill="white">
                            <use xlink:href="#path-3"></use>
                        </mask>
                        <g id="Clip-24"></g>
                        <path d="M79.1883323,0.835495397 L4.71891692,0.835495397 C2.11214769,0.835495397 0.000147692308,2.94749543 0.000147692308,5.55278778 L0.000147692308,61.7423271 C0.000147692308,64.3490963 2.11214769,66.4625733 4.71891692,66.4625733 L79.1883323,66.4625733 C81.7951015,66.4625733 83.9071015,64.3490963 83.9071015,61.7423271 L83.9071015,5.55278778 C83.9071015,2.94749543 81.7951015,0.835495397 79.1883323,0.835495397 M79.1883323,2.40694157 C80.9237169,2.40694157 82.3341785,3.82035698 82.3341785,5.55278778 L82.3341785,61.7423271 C82.3341785,63.4777117 80.9237169,64.8881733 79.1883323,64.8881733 L4.71891692,64.8881733 C2.98353231,64.8881733 1.57307077,63.4777117 1.57307077,61.7423271 L1.57307077,5.55278778 C1.57307077,3.82035698 2.98353231,2.40694157 4.71891692,2.40694157 L79.1883323,2.40694157" id="Fill-23" fill="#707473" mask="url(#mask-4)"></path>
                    </g>
                    <g id="Group-28" stroke-width="1" fill="none" transform="translate(23.630769, -0.241182)">
                        <mask id="mask-6" fill="white">
                            <use xlink:href="#path-5"></use>
                        </mask>
                        <g id="Clip-27"></g>
                        <path d="M67.7464615,50.4926038 L65.1175385,50.4926038 C64.6833231,50.4926038 64.3303385,50.1410961 64.3303385,49.7068807 C64.3303385,49.2726653 64.6833231,48.9211577 65.1175385,48.9211577 L67.7464615,48.9211577 C69.0476308,48.9211577 70.1065846,47.8622038 70.1065846,46.5610345 L70.1065846,4.1733416 C70.1065846,2.87217235 69.0476308,1.81321849 67.7464615,1.81321849 L4.10584615,1.81321849 C2.80467692,1.81321849 1.74572308,2.87217235 1.74572308,4.1733416 L1.74572308,6.85691087 C1.74572308,7.29112626 1.39421538,7.64263396 0.96,7.64263396 C0.525784615,7.64263396 0.174276923,7.29112626 0.174276923,6.85691087 L0.174276923,4.1733416 C0.174276923,2.00521849 1.93772308,0.241772311 4.10584615,0.241772311 L67.7464615,0.241772311 C69.9145846,0.241772311 71.6780308,2.00521849 71.6780308,4.1733416 L71.6780308,46.5610345 C71.6780308,48.7291576 69.9145846,50.4926038 67.7464615,50.4926038" id="Fill-26" fill="#707473" mask="url(#mask-6)"></path>
                    </g>
                </g>
            </g>
        </g>
    </g>
</svg>