<?xml version="1.0" encoding="UTF-8"?>
<svg width="96px" height="96px" viewBox="0 0 96 96" version="1.1" xmlns="http://www.w3.org/2000/svg" xmlns:xlink="http://www.w3.org/1999/xlink">
    <!-- Generator: Sketch 50.2 (55047) - http://www.bohemiancoding.com/sketch -->
    <title>4800 万像素超解析照片 </title>
    <desc>Created with Sketch.</desc>
    <defs>
        <rect id="path-1" x="0" y="0" width="96" height="96"></rect>
        <polygon id="path-3" points="0 1.0695 95.99985 1.0695 95.99985 53.99955 0 53.99955"></polygon>
    </defs>
    <g id="4800-万像素超解析照片-" stroke="none" stroke-width="1" fill="none" fill-rule="evenodd">
        <g id="Group">
            <mask id="mask-2" fill="white">
                <use xlink:href="#path-1"></use>
            </mask>
            <g id="Mask"></g>
            <g mask="url(#mask-2)">
                <g transform="translate(0.000000, 22.500000)">
                    <g id="Group-3" stroke-width="1" fill="none" transform="translate(0.000000, -1.069650)">
                        <mask id="mask-4" fill="white">
                            <use xlink:href="#path-3"></use>
                        </mask>
                        <g id="Clip-2"></g>
                        <path d="M37.19685,46.87005 L58.80285,46.87005 C69.75585,46.87005 80.65785,48.37155 91.20135,51.33405 L94.49985,52.25955 L94.49985,2.81055 L91.20135,3.73605 C80.65785,6.69855 69.75585,8.20005 58.80285,8.20005 L37.19685,8.20005 C26.24385,8.20005 15.34335,6.69855 4.79685,3.73605 L1.49985,2.81055 L1.49985,52.25955 L4.79685,51.33405 C15.34335,48.37155 26.24385,46.87005 37.19685,46.87005 M0.74985,53.99955 C0.58935,53.99955 0.42885,53.94705 0.29685,53.84655 C0.10935,53.70555 -0.00015,53.48355 -0.00015,53.24955 L-0.00015,1.82055 C-0.00015,1.58655 0.10935,1.36455 0.29685,1.22205 C0.48435,1.08105 0.72885,1.03455 0.95235,1.09755 L5.20185,2.29155 C15.61635,5.21655 26.38185,6.70005 37.19685,6.70005 L58.80285,6.70005 C69.61935,6.70005 80.38335,5.21655 90.79635,2.29155 L95.04735,1.09755 C95.27235,1.03305 95.51535,1.08105 95.70285,1.22205 C95.89035,1.36455 95.99985,1.58655 95.99985,1.82055 L95.99985,53.24955 C95.99985,53.48355 95.89035,53.70555 95.70285,53.84655 C95.51685,53.98905 95.27385,54.03555 95.04735,53.97105 L90.79635,52.77705 C80.38335,49.85205 69.61935,48.37005 58.80285,48.37005 L37.19685,48.37005 C26.38185,48.37005 15.61635,49.85205 5.20185,52.77705 L0.95235,53.97105 C0.88635,53.99055 0.81735,53.99955 0.74985,53.99955" id="Fill-1" fill="#707473" mask="url(#mask-4)"></path>
                    </g>
                    <path d="M0.75,39.7506 C0.597,39.7506 0.4455,39.7056 0.3135,39.6096 C-0.024,39.3696 -0.1005,38.9016 0.141,38.5641 L19.7835,11.1006 C19.9125,10.9191 20.1165,10.8051 20.34,10.7886 C20.5815,10.7781 20.781,10.8591 20.9355,11.0196 L34.836,25.5306 L42.894,21.0666 C43.1865,20.9061 43.5525,20.9556 43.7865,21.1926 L57.774,35.1786 L75.249,18.7416 C75.5235,18.4836 75.9465,18.4701 76.239,18.7086 L95.4045,34.4481 C95.7225,34.7121 95.7705,35.1831 95.508,35.5041 C95.2425,35.8251 94.7715,35.8686 94.452,35.6076 L75.7965,20.2851 L58.272,36.7701 C57.975,37.0476 57.5145,37.0401 57.2265,36.7536 L43.1265,22.6536 L35.0565,27.1221 C34.758,27.2856 34.386,27.2301 34.152,26.9841 L20.4765,12.7101 L1.359,39.4371 C1.2135,39.6426 0.9825,39.7506 0.75,39.7506" id="Fill-4" fill="#707473"></path>
                    <path d="M65.316,13.22085 C63.5145,13.22085 62.049,14.68635 62.049,16.48785 C62.049,18.28935 63.5145,19.75335 65.316,19.75335 C67.1175,19.75335 68.583,18.28935 68.583,16.48785 C68.583,14.68635 67.1175,13.22085 65.316,13.22085 M65.316,21.25335 C62.688,21.25335 60.549,19.11585 60.549,16.48785 C60.549,13.85985 62.688,11.72085 65.316,11.72085 C67.944,11.72085 70.083,13.85985 70.083,16.48785 C70.083,19.11585 67.944,21.25335 65.316,21.25335" id="Fill-6" fill="#707473"></path>
                </g>
            </g>
        </g>
    </g>
</svg>