<?xml version="1.0" encoding="UTF-8"?>
<svg width="96px" height="96px" viewBox="0 0 96 96" version="1.1" xmlns="http://www.w3.org/2000/svg" xmlns:xlink="http://www.w3.org/1999/xlink">
    <!-- Generator: Sketch 50.2 (55047) - http://www.bohemiancoding.com/sketch -->
    <title>4 倍变焦无损全高清视频 </title>
    <desc>Created with Sketch.</desc>
    <defs>
        <rect id="path-1" x="0" y="0" width="96" height="96"></rect>
        <polygon id="path-3" points="0.00045 0.7299 96.105 0.7299 96.105 59.9994 0.00045 59.9994"></polygon>
        <polygon id="path-5" points="0 60.77055 96.105 60.77055 96.105 1.49955 0 1.49955"></polygon>
    </defs>
    <g id="4-倍变焦无损全高清视频-" stroke="none" stroke-width="1" fill="none" fill-rule="evenodd">
        <g id="Group">
            <mask id="mask-2" fill="white">
                <use xlink:href="#path-1"></use>
            </mask>
            <g id="Mask"></g>
            <g mask="url(#mask-2)">
                <g transform="translate(0.000000, 18.000000)">
                    <g id="Group-3" stroke="none" stroke-width="1" fill="none" fill-rule="evenodd" transform="translate(0.000000, 0.770550)">
                        <mask id="mask-4" fill="white">
                            <use xlink:href="#path-3"></use>
                        </mask>
                        <g id="Clip-2"></g>
                        <path d="M4.35495,2.3349 C2.83845,2.3349 1.60545,3.5679 1.60545,5.0844 L1.60545,55.6449 C1.60545,57.1614 2.83845,58.3944 4.35495,58.3944 L91.75245,58.3944 C93.26595,58.3944 94.50045,57.1614 94.50045,55.6449 L94.50045,5.0844 C94.50045,3.5679 93.26595,2.3349 91.75245,2.3349 L4.35495,2.3349 Z M91.75245,59.9994 L4.35495,59.9994 C1.95345,59.9994 0.00045,58.0464 0.00045,55.6449 L0.00045,5.0844 C0.00045,2.6829 1.95345,0.7299 4.35495,0.7299 L91.75245,0.7299 C94.15245,0.7299 96.10545,2.6829 96.10545,5.0844 L96.10545,55.6449 C96.10545,58.0464 94.15245,59.9994 91.75245,59.9994 Z" id="Fill-1" fill="#707473" mask="url(#mask-4)"></path>
                    </g>
                    <path d="M40.36815,29.8419 C40.36815,29.5404 40.39665,29.1804 40.44915,28.7619 L40.53015,28.2279 C40.53015,28.2459 40.42965,28.3989 40.22715,28.6914 C39.98865,29.0424 39.76365,29.3304 39.55515,29.5629 L37.80165,31.5144 C37.53765,31.7859 37.24365,32.0634 36.91965,32.3514 C36.64815,32.5914 36.51315,32.7069 36.51315,32.6979 L37.07115,32.6289 C37.51215,32.5824 37.91415,32.5599 38.27865,32.5599 L40.36815,32.5599 L40.36815,29.8419 Z M45.64065,32.5599 L45.64065,35.2884 L43.66515,35.2884 L43.66515,37.6464 L40.36815,37.6464 L40.36815,35.2884 L33.04065,35.2884 L33.04065,32.8629 L43.38765,21.1464 L43.66515,21.1464 L43.66515,32.5599 L45.64065,32.5599 Z" id="Fill-4" stroke="none" fill="#707473" fill-rule="evenodd"></path>
                    <polygon id="Fill-6" stroke="none" fill="#707473" fill-rule="evenodd" points="60.9903 37.626 48.9018 25.5405 50.9763 23.4675 63.0648 35.5515"></polygon>
                    <polygon id="Fill-8" stroke="none" fill="#707473" fill-rule="evenodd" points="50.9766 37.626 48.9021 35.5515 60.9906 23.4675 63.0651 25.5405"></polygon>
                    <mask id="mask-6" fill="white">
                        <use xlink:href="#path-5"></use>
                    </mask>
                    <g id="Clip-11" stroke="none" fill="none"></g>
                    <path d="M1.365,11.72955 L7.365,11.72955 L7.365,8.72955 L1.365,8.72955 L1.365,11.72955 Z M11.865,11.72955 L17.865,11.72955 L17.865,8.72955 L11.865,8.72955 L11.865,11.72955 Z M22.365,11.72955 L28.365,11.72955 L28.365,8.72955 L22.365,8.72955 L22.365,11.72955 Z M32.865,11.72955 L38.865,11.72955 L38.865,8.72955 L32.865,8.72955 L32.865,11.72955 Z M43.365,11.72955 L49.365,11.72955 L49.365,8.72955 L43.365,8.72955 L43.365,11.72955 Z M53.865,11.72955 L59.865,11.72955 L59.865,8.72955 L53.865,8.72955 L53.865,11.72955 Z M64.365,11.72955 L70.365,11.72955 L70.365,8.72955 L64.365,8.72955 L64.365,11.72955 Z M74.865,11.72955 L80.865,11.72955 L80.865,8.72955 L74.865,8.72955 L74.865,11.72955 Z M85.365,11.72955 L91.365,11.72955 L91.365,8.72955 L85.365,8.72955 L85.365,11.72955 Z" id="Fill-10" stroke="none" fill="#707473" fill-rule="evenodd" mask="url(#mask-6)"></path>
                    <path d="M1.365,53.54205 L7.365,53.54205 L7.365,50.54205 L1.365,50.54205 L1.365,53.54205 Z M11.865,53.54205 L17.865,53.54205 L17.865,50.54205 L11.865,50.54205 L11.865,53.54205 Z M22.365,53.54205 L28.365,53.54205 L28.365,50.54205 L22.365,50.54205 L22.365,53.54205 Z M32.865,53.54205 L38.865,53.54205 L38.865,50.54205 L32.865,50.54205 L32.865,53.54205 Z M43.365,53.54205 L49.365,53.54205 L49.365,50.54205 L43.365,50.54205 L43.365,53.54205 Z M53.865,53.54205 L59.865,53.54205 L59.865,50.54205 L53.865,50.54205 L53.865,53.54205 Z M64.365,53.54205 L70.365,53.54205 L70.365,50.54205 L64.365,50.54205 L64.365,53.54205 Z M74.865,53.54205 L80.865,53.54205 L80.865,50.54205 L74.865,50.54205 L74.865,53.54205 Z M85.365,53.54205 L91.365,53.54205 L91.365,50.54205 L85.365,50.54205 L85.365,53.54205 Z" id="Fill-12" stroke="none" fill="#707473" fill-rule="evenodd" mask="url(#mask-6)"></path>
                </g>
            </g>
        </g>
    </g>
</svg>