<?xml version="1.0" encoding="UTF-8"?>
<svg width="96px" height="96px" viewBox="0 0 96 96" version="1.1" xmlns="http://www.w3.org/2000/svg" xmlns:xlink="http://www.w3.org/1999/xlink">
    <!-- Generator: Sketch 50.2 (55047) - http://www.bohemiancoding.com/sketch -->
    <title>滑动变焦视频 </title>
    <desc>Created with Sketch.</desc>
    <defs>
        <rect id="path-1" x="0" y="0" width="96" height="96"></rect>
        <polygon id="path-3" points="0 73.5 73.5 73.5 73.5 0 0 0"></polygon>
    </defs>
    <g id="滑动变焦视频-" stroke="none" stroke-width="1" fill="none" fill-rule="evenodd">
        <g id="Group">
            <mask id="mask-2" fill="white">
                <use xlink:href="#path-1"></use>
            </mask>
            <g id="Mask"></g>
            <g mask="url(#mask-2)">
                <g transform="translate(12.000000, 12.000000)">
                    <path d="M40.11765,30.19185 C40.11765,32.28285 38.42265,33.97635 36.33465,33.97635 C34.24365,33.97635 32.54865,32.28285 32.54865,30.19185 C32.54865,28.10235 34.24365,26.40885 36.33465,26.40885 C38.42265,26.40885 40.11765,28.10235 40.11765,30.19185" id="Fill-1" stroke="none" fill="#707473" fill-rule="evenodd"></path>
                    <path d="M47.55615,34.4151 C46.76865,34.0086 45.75465,34.4046 45.29415,35.2986 L43.17165,38.9781 L41.10015,35.8116 C41.08215,35.7816 41.05815,35.7576 41.03565,35.7321 C40.88115,35.3481 40.50615,35.0751 40.06515,35.0751 L33.59715,35.0751 C33.52965,35.0751 33.46365,35.0826 33.40065,35.0946 L33.15915,35.0946 C32.56365,35.0946 32.01315,35.4096 31.70865,35.9226 L25.12515,47.0016 L28.85715,47.0016 L32.54865,40.8366 L32.54865,47.0901 L41.11215,47.0901 L41.11215,41.6886 L41.95965,42.9816 C42.45915,43.6626 43.39215,43.8336 44.09565,43.3971 C44.27265,43.3401 44.43315,43.2141 44.53815,43.0311 L48.14865,36.7701 C48.60915,35.8776 48.34365,34.8216 47.55615,34.4151" id="Fill-3" stroke="none" fill="#707473" fill-rule="evenodd"></path>
                    <path d="M9.45555,16.04145 C9.04155,16.04145 8.70555,15.70545 8.70555,15.29145 L8.70555,8.70345 L15.29205,8.70345 C15.70605,8.70345 16.04205,9.03945 16.04205,9.45345 C16.04205,9.86895 15.70605,10.20345 15.29205,10.20345 L10.20555,10.20345 L10.20555,15.29145 C10.20555,15.70545 9.86955,16.04145 9.45555,16.04145" id="Fill-5" stroke="none" fill="#707473" fill-rule="evenodd"></path>
                    <path d="M64.04445,16.04145 C63.63045,16.04145 63.29445,15.70545 63.29445,15.29145 L63.29445,10.20345 L58.20795,10.20345 C57.79395,10.20345 57.45795,9.86895 57.45795,9.45345 C57.45795,9.03945 57.79395,8.70345 58.20795,8.70345 L64.79445,8.70345 L64.79445,15.29145 C64.79445,15.70545 64.45845,16.04145 64.04445,16.04145" id="Fill-7" stroke="none" fill="#707473" fill-rule="evenodd"></path>
                    <path d="M64.79445,64.79445 L58.20795,64.79445 C57.79395,64.79445 57.45795,64.45845 57.45795,64.04445 C57.45795,63.63045 57.79395,63.29445 58.20795,63.29445 L63.29445,63.29445 L63.29445,58.20795 C63.29445,57.79395 63.63045,57.45795 64.04445,57.45795 C64.45845,57.45795 64.79445,57.79395 64.79445,58.20795 L64.79445,64.79445 Z" id="Fill-9" stroke="none" fill="#707473" fill-rule="evenodd"></path>
                    <path d="M15.29145,64.79445 L8.70495,64.79445 L8.70495,58.20795 C8.70495,57.79395 9.04095,57.45795 9.45495,57.45795 C9.87045,57.45795 10.20495,57.79395 10.20495,58.20795 L10.20495,63.29445 L15.29145,63.29445 C15.70545,63.29445 16.04145,63.63045 16.04145,64.04445 C16.04145,64.45845 15.70545,64.79445 15.29145,64.79445" id="Fill-11" stroke="none" fill="#707473" fill-rule="evenodd"></path>
                    <mask id="mask-4" fill="white">
                        <use xlink:href="#path-3"></use>
                    </mask>
                    <g id="Clip-14" stroke="none" fill="none"></g>
                    <path d="M1.5,72 L72,72 L72,1.5 L1.5,1.5 L1.5,72 Z M72.75,73.5 L0.75,73.5 C0.336,73.5 0,73.164 0,72.75 L0,0.75 C0,0.336 0.336,0 0.75,0 L72.75,0 C73.164,0 73.5,0.336 73.5,0.75 L73.5,72.75 C73.5,73.164 73.164,73.5 72.75,73.5 Z" id="Fill-13" stroke="none" fill="#707473" fill-rule="evenodd" mask="url(#mask-4)"></path>
                    <path d="M6.81,7.86915 L0.3315,1.39065 L1.392,0.33015 L7.8705,6.80865 L6.81,7.86915 Z M16.068,17.12715 L9.588,10.64715 L10.6485,9.58665 L17.1285,16.06665 L16.068,17.12715 Z M21.8205,22.87965 L18.843,19.90215 L19.9035,18.84165 L22.881,21.81915 L21.8205,22.87965 Z" id="Fill-15" stroke="none" fill="#707473" fill-rule="evenodd" mask="url(#mask-4)"></path>
                    <path d="M66.65325,7.90575 L65.59275,6.84525 L72.07275,0.36675 L73.13325,1.42725 L66.65325,7.90575 Z M57.39675,17.16225 L56.33625,16.10175 L62.81625,9.62325 L63.87675,10.68375 L57.39675,17.16225 Z M51.68025,22.87875 L50.61975,21.81825 L53.55975,18.87825 L54.62025,19.93875 L51.68025,22.87875 Z" id="Fill-16" stroke="none" fill="#707473" fill-rule="evenodd" mask="url(#mask-4)"></path>
                    <path d="M53.6469,54.70755 L50.6184,51.67905 L51.6789,50.61855 L54.7074,53.64705 L53.6469,54.70755 Z M62.9034,63.96405 L56.4234,57.48405 L57.4839,56.42355 L63.9639,62.90355 L62.9034,63.96405 Z M72.1599,73.22055 L65.6799,66.74055 L66.7404,65.68005 L73.2204,72.16005 L72.1599,73.22055 Z" id="Fill-17" stroke="none" fill="#707473" fill-rule="evenodd" mask="url(#mask-4)"></path>
                    <path d="M19.8531,54.70755 L18.7926,53.64705 L21.8211,50.61855 L22.8816,51.67905 L19.8531,54.70755 Z M10.5966,63.96405 L9.5361,62.90355 L16.0161,56.42355 L17.0766,57.48405 L10.5966,63.96405 Z M1.3401,73.22055 L0.2796,72.16005 L6.7596,65.68005 L7.8201,66.74055 L1.3401,73.22055 Z" id="Fill-18" stroke="none" fill="#707473" fill-rule="evenodd" mask="url(#mask-4)"></path>
                </g>
            </g>
        </g>
    </g>
</svg>