<?xml version="1.0" encoding="UTF-8"?>
<svg width="60px" height="48px" viewBox="0 0 60 48" version="1.1" xmlns="http://www.w3.org/2000/svg" xmlns:xlink="http://www.w3.org/1999/xlink">
    <!-- Generator: Sketch 51.3 (57544) - http://www.bohemiancoding.com/sketch -->
    <title>others</title>
    <desc>Created with Sketch.</desc>
    <defs></defs>
    <g id="others" stroke="none" stroke-width="1" fill="none" fill-rule="evenodd">
        <path d="M44.0091817,23.2567993 L41.6046073,22.4482617 C41.4825334,22.4072144 41.3557278,22.4998096 41.3557278,22.6296338 L41.3557278,39.355957 C41.3557278,39.4619165 41.2705598,39.546875 41.1664657,39.546875 L18.8335445,39.546875 C18.728504,39.546875 18.6442824,39.4619165 18.6442824,39.355957 L18.6442824,22.6296338 C18.6442824,22.4998096 18.5174769,22.4072144 18.3954029,22.4482617 L15.9908286,23.2567993 C15.8886271,23.2911646 15.7798014,23.2338892 15.7495195,23.1307935 L13.0080588,13.9123193 C12.9834547,13.8302246 13.0165755,13.7414478 13.0884951,13.6956274 L20.4905337,9.02959229 C20.5208156,9.01050049 20.5558291,9 20.5908426,9 L24.6637618,9 C24.7432518,9 24.8113861,9.05154785 24.8369365,9.12600586 C25.542884,11.1726465 27.2169068,12.8183594 30.0000051,12.8183594 C32.7812108,12.8183594 34.4580726,11.1726465 35.1621274,9.12600586 C35.1886241,9.05154785 35.2567585,9 35.3362484,9 L39.4091676,9 C39.4441811,9 39.4791946,9.01050049 39.5094765,9.02959229 L46.9105688,13.6956274 C46.9834347,13.7414478 47.0165555,13.8302246 46.9919515,13.9123193 L44.2504908,23.1307935 C44.2202089,23.2338892 44.1104368,23.2911646 44.0091817,23.2567993 Z M31.675258,18.8874507 L30.9418677,21.9698213 C30.7762634,22.6685811 30.2983767,22.9043647 29.8185974,22.9444575 C29.771282,22.9501851 28.429414,22.9444575 28.429414,22.9444575 L28.1275411,24.2092891 L30.6504042,24.2092891 C31.3109287,24.2092891 32.2865745,23.8694551 32.6357629,22.3984321 L33.4732475,18.8874507 L31.675258,18.8874507 Z M30.5945718,21.6509883 L31.556023,17.5920723 L29.7050402,17.5920723 L28.8599852,21.1593745 C28.7492669,21.6261689 28.5249914,21.642397 28.270434,21.642397 L26.8765189,21.642397 C26.6077668,21.642397 26.4790687,21.616623 26.5670756,21.2462422 L26.8121698,20.2124214 C26.8746263,19.9489546 26.9976466,19.9002705 27.2209758,19.9002705 L28.7407501,19.9002705 L28.9811129,18.8874507 L26.0030746,18.8874507 C25.564933,18.8874507 24.9602407,19.0755049 24.7662471,19.8974067 L24.3810989,21.5163911 C24.1681791,22.4213423 24.5618442,22.6227607 25.031214,22.6227607 L29.2981268,22.6227607 C29.8318458,22.6227607 30.409095,22.4347065 30.5945718,21.6509883 Z M33.8801609,18.8874507 L33.0086092,22.6227607 L34.8065987,22.6227607 L35.677204,18.8874507 L33.8801609,18.8874507 Z" id="Mask" fill="#3B3E40" fill-rule="nonzero"></path>
    </g>
</svg>