<?xml version="1.0" encoding="UTF-8"?>
<svg width="60px" height="48px" viewBox="0 0 60 48" version="1.1" xmlns="http://www.w3.org/2000/svg" xmlns:xlink="http://www.w3.org/1999/xlink">
    <!-- Generator: Sketch 51.3 (57544) - http://www.bohemiancoding.com/sketch -->
    <title>osmo</title>
    <desc>Created with Sketch.</desc>
    <defs></defs>
    <g id="osmo" stroke="none" stroke-width="1" fill="none" fill-rule="evenodd">
        <path d="M28.6029707,10.5397727 L27.9464464,10.5397727 L27.9464464,7.13068181 L28.6029707,7.13068181 C29.2229333,5.86792661 30.5101663,5 31.9973648,5 C34.0893291,5 35.7856301,6.71732955 35.7856301,8.83522727 C35.7856301,10.953125 34.0893291,12.6704545 31.9973648,12.6704545 C30.5101663,12.6704545 29.2229333,11.8025279 28.6029707,10.5397727 Z M24.7155612,6.27840909 L27.0684949,6.27840909 C27.1232143,6.27840909 27.1754082,6.30568181 27.2065561,6.35255681 L27.7057653,7.08721591 C27.7251276,7.11534091 27.7352296,7.14857955 27.7352296,7.18352273 L27.7352296,10.4869318 C27.7352296,10.521875 27.7251276,10.5551136 27.7057653,10.5832386 L27.2065561,11.3178977 C27.1754082,11.3647727 27.1232143,11.3920455 27.0684949,11.3920455 L24.7155612,11.3920455 C24.6625255,11.3920455 24.6120153,11.3664773 24.5808673,11.3238636 L24.0336735,10.5849432 C24.0117857,10.5559659 24,10.5201705 24,10.4826705 L24,7.18778409 C24,7.15028409 24.0117857,7.11448864 24.0336735,7.08551136 L24.5808673,6.34659091 C24.6120153,6.30397727 24.6625255,6.27840909 24.7155612,6.27840909 Z M31.9973648,11.3920455 C33.3922883,11.3920455 34.522875,10.2474432 34.522875,8.83522727 C34.522875,7.42301136 33.3922883,6.27840909 31.9973648,6.27840909 C30.6024413,6.27840909 29.4718546,7.42301136 29.4718546,8.83522727 C29.4718546,10.2474432 30.6024413,11.3920455 31.9973648,11.3920455 Z M31.9973648,6.70454545 C33.1599413,6.70454545 34.1019566,7.65823864 34.1019566,8.83522727 C34.1019566,10.0122159 33.1599413,10.9659091 31.9973648,10.9659091 C30.8347883,10.9659091 29.892773,10.0122159 29.892773,8.83522727 C29.892773,7.65823864 30.8347883,6.70454545 31.9973648,6.70454545 Z M31.9973648,12.8835227 L31.9973648,14.1619318 L29.4718546,14.1619318 L29.4718546,11.9502841 C30.1621607,12.5247159 31.0334617,12.8835227 31.9973648,12.8835227 Z M28.6300179,18.618608 L28.6300179,17.9971591 L32.8392015,17.9971591 L32.8392015,18.618608 L28.6300179,18.618608 Z M28.1248316,18.6363636 L33.3442194,18.6363636 C33.5302653,18.6363636 33.6809541,18.7889205 33.6809541,18.9772727 L33.6809541,20 C33.6809541,20.1883523 33.5302653,20.3409091 33.3442194,20.3409091 L28.1248316,20.3409091 C27.9387857,20.3409091 27.7880969,20.1883523 27.7880969,20 L27.7880969,18.9772727 C27.7880969,18.7889205 27.9387857,18.6363636 28.1248316,18.6363636 Z M30.7609592,42.5 L30.7348622,42.5 L28.4720051,42.5 C28.4720051,42.5 28.209352,33.4088069 28.209352,30.9431819 C28.209352,30.153125 28.4551684,26.5267045 28.4551684,25.3428977 C28.4551684,24.1582386 27.3675153,22.2065341 27.3675153,21.5340909 C27.3675153,20.8616477 27.4693776,20.8463069 27.6352194,20.5539773 L30.7348622,20.5539773 L30.7609592,20.5539773 L33.8336633,20.5539773 C33.9995051,20.8463069 34.1022092,20.8616477 34.1022092,21.5340909 C34.1022092,22.2065341 33.0137143,24.1582386 33.0137143,25.3428977 C33.0137143,26.5267045 33.2603725,30.153125 33.2603725,30.9431819 C33.2603725,33.4088069 32.9968776,42.5 32.9968776,42.5 L30.7609592,42.5 Z M28.54575,14.375 L32.923301,14.375 C33.1093469,14.375 33.2600357,14.5275568 33.2600357,14.7159091 L33.2600357,17.4431819 C33.2600357,17.6315341 33.1093469,17.7840909 32.923301,17.7840909 L28.54575,17.7840909 C28.3597041,17.7840909 28.2090153,17.6315341 28.2090153,17.4431819 L28.2090153,14.7159091 C28.2090153,14.5275568 28.3597041,14.375 28.54575,14.375 Z" id="Mask" fill="#3B3E40" fill-rule="nonzero"></path>
    </g>
</svg>